<?xml version="1.0" standalone="no"?>
<!DOCTYPE svg PUBLIC "-//W3C//DTD SVG 20010904//EN"
 "http://www.w3.org/TR/2001/REC-SVG-20010904/DTD/svg10.dtd">
<svg version="1.0" xmlns="http://www.w3.org/2000/svg"
 width="200.000000pt" height="200.000000pt" viewBox="0 0 200.000000 200.000000"
 preserveAspectRatio="xMidYMid meet">
<metadata>
Created by potrace 1.14, written by Peter Selinger 2001-2017
</metadata>
<g transform="translate(0.000000,200.000000) scale(0.100000,-0.100000)"
fill="#000000" stroke="none">
<path d="M995 1465 c-88 -13 -240 -35 -338 -49 -194 -27 -208 -32 -228 -94
-14 -42 -6 -125 16 -158 20 -31 20 -30 -17 -44 l-33 -11 37 -30 c29 -24 38
-39 44 -75 7 -51 -3 -70 -47 -79 -33 -7 -47 -24 -30 -34 8 -6 7 -17 -4 -44
-26 -64 -15 -147 27 -194 22 -24 463 -173 512 -173 24 0 147 28 579 134 70 18
128 36 129 41 0 6 -18 17 -41 25 -40 14 -41 15 -41 63 0 44 4 53 37 84 29 26
35 36 24 42 -11 7 -10 17 8 55 18 36 22 58 18 103 -2 32 -8 68 -12 80 -6 18
-3 22 19 25 41 5 36 21 -11 38 -41 14 -43 16 -43 55 0 60 8 79 41 97 16 9 29
22 29 27 0 6 -33 20 -72 32 -40 12 -137 41 -216 65 -80 24 -162 44 -185 43
-23 0 -114 -11 -202 -24z m-255 -199 l225 -73 3 -77 c3 -90 9 -87 -116 -52
-48 14 -145 41 -217 61 -71 20 -138 45 -149 55 -26 25 -33 103 -12 135 9 14
22 25 29 25 6 0 113 -33 237 -74z m832 -27 l-4 -65 -268 -67 c-147 -37 -274
-67 -283 -67 -14 0 -17 12 -17 70 0 83 -7 78 157 110 59 12 178 36 263 54 85
18 155 32 156 32 1 -1 -1 -31 -4 -67z m33 -228 c0 -41 -5 -65 -16 -76 -8 -8
-75 -33 -149 -54 -152 -44 -325 -91 -334 -91 -3 0 -6 35 -6 78 l0 78 233 76
c273 89 272 89 272 -11z m-955 18 c52 -11 167 -34 255 -52 l160 -33 6 -69 c3
-39 2 -74 -1 -78 -8 -9 -563 127 -566 139 -2 5 -4 35 -7 67 l-4 58 31 -6 c17
-3 74 -15 126 -26z m60 -257 c113 -37 210 -70 215 -74 6 -3 9 -38 7 -81 l-4
-75 -46 13 c-26 7 -130 37 -232 65 -102 28 -193 59 -202 68 -27 26 -35 105
-14 137 21 32 11 34 276 -53z m826 22 c-3 -9 -6 -37 -6 -63 l0 -48 -269 -66
c-148 -37 -276 -70 -285 -73 -14 -5 -16 5 -16 74 l0 80 68 11 c37 7 94 19 127
26 53 13 128 29 295 64 72 14 93 13 86 -5z"/>
</g>
</svg>
